<svg height="512pt" viewBox="-84 0 512 512" width="512pt" xmlns="http://www.w3.org/2000/svg"><path d="m162.519531 3.714844c-1.652343 1.457031-40.859375 36.359375-80.628906 87.355468-54.339844 69.679688-81.890625 133.007813-81.890625 188.246094 0 88.140625 69.414062 160.707032 157.539062 168.0625 4.863282.414063 9.796876.621094 14.769532.621094l9.851562-224-9.851562-224c-3.5 0-6.996094 1.238281-9.789063 3.714844zm0 0" fill="#18af63"/><path d="m262.722656 91.070312c-39.769531-50.996093-78.976562-85.898437-80.628906-87.355468-2.792969-2.476563-6.289062-3.714844-9.785156-3.714844v448c4.96875 0 9.902344-.207031 14.765625-.621094 88.125-7.355468 157.539062-79.917968 157.539062-168.0625 0-55.238281-27.550781-118.566406-81.890625-188.246094zm0 0" fill="#0a9f5c"/><path d="m157.539062 433.230469v4.921875c0 24.433594-19.878906 44.308594-44.308593 44.308594-8.15625 0-14.769531 6.613281-14.769531 14.769531s6.613281 14.769531 14.769531 14.769531c24.128906 0 45.59375-11.636719 59.078125-29.589844l9.851562-26.039062-9.851562-37.910156c-8.160156 0-14.769532 6.613281-14.769532 14.769531zm0 0" fill="#8adc67"/><path d="m187.074219 433.230469c0-8.15625-6.609375-14.769531-14.765625-14.769531v63.949218c9.265625-12.339844 15.910156-25.296875 14.765625-44.257812zm0 0" fill="#65c638"/><path d="m157.539062 157.539062v35.179688l-18.011718-9.007812c-7.292969-3.640626-16.164063-.6875-19.820313 6.605468-3.640625 7.296875-.6875 16.167969 6.609375 19.820313l31.222656 15.609375v118.003906c-20.992187-8.0625-43.867187-19.996094-50.195312-31.074219-4.039062-7.078125-13.066406-9.542969-20.148438-5.503906-7.078124 4.046875-9.550781 13.066406-5.503906 20.15625 13.875 24.289063 55.554688 40.917969 75.847656 47.800781v72.25c4.863282.414063 9.796876.621094 14.769532.621094l9.851562-147.691406-9.851562-157.539063c-8.15625 0-14.769532 6.617188-14.769532 14.769531zm0 0" fill="#8adc67"/><path d="m257.417969 307.171875c-7.089844-4.039063-16.109375-1.578125-20.148438 5.503906-6.308593 11.046875-29.183593 22.980469-50.195312 31.0625v-60.140625l52.5-35c6.785156-4.519531 8.625-13.699218 4.097656-20.480468-4.53125-6.785157-13.695313-8.625-20.480469-4.097657l-36.117187 24.074219v-90.554688c0-8.152343-6.613281-14.769531-14.765625-14.769531v305.230469c4.96875 0 9.902344-.207031 14.765625-.621094v-72.25c20.292969-6.882812 61.972656-23.511718 75.847656-47.804687 4.046875-7.085938 1.574219-16.105469-5.503906-20.152344zm0 0" fill="#65c638"/></svg>